<svg width="76" height="77" viewBox="0 0 76 77" fill="none" xmlns="http://www.w3.org/2000/svg">
<rect y="0.651367" width="76" height="76" rx="38" fill="#ED9902"/>
<path d="M50.7045 52.9468C51.1439 53.3861 51.8562 53.3861 52.2955 52.9468C52.7348 52.5074 52.7348 51.7951 52.2955 51.3558L50.7045 52.9468ZM45.2072 47.4495L50.7045 52.9468L52.2955 51.3558L46.7982 45.8585L45.2072 47.4495Z" fill="white"/>
<path d="M24.9736 33.1374C25.848 29.4098 28.7585 26.4993 32.486 25.625C35.178 24.9935 37.9796 24.9935 40.6716 25.625C44.3991 26.4993 47.3096 29.4098 48.184 33.1374C48.8154 35.8294 48.8154 38.631 48.184 41.3229C47.3096 45.0505 44.3991 47.961 40.6716 48.8354C37.9796 49.4668 35.178 49.4668 32.486 48.8354C28.7585 47.961 25.848 45.0505 24.9736 41.3229C24.3421 38.631 24.3421 35.8294 24.9736 33.1374Z" stroke="white" stroke-width="2.25" stroke-linecap="round"/>
<path d="M24.9736 33.1374C24.3421 35.8294 24.3421 38.631 24.9736 41.3229C25.848 45.0505 28.7585 47.961 32.486 48.8354C35.178 49.4668 37.9796 49.4668 40.6716 48.8354C44.3991 47.961 47.3096 45.0505 48.184 41.3229C48.8154 38.631 48.8154 35.8294 48.184 33.1374C47.3096 29.4098 44.3991 26.4993 40.6716 25.625C37.9796 24.9935 35.178 24.9935 32.486 25.625" stroke="white" stroke-width="2.25" stroke-linecap="round"/>
</svg>
